<?xml version="1.0" encoding="utf-8"?>
<!-- Generator: Adobe Illustrator 18.1.1, SVG Export Plug-In . SVG Version: 6.00 Build 0)  -->
<svg version="1.1" id="Lag_1" xmlns="http://www.w3.org/2000/svg" xmlns:xlink="http://www.w3.org/1999/xlink" x="0px" y="0px"
	 viewBox="0 0 165.3 69.2" enable-background="new 0 0 165.3 69.2" xml:space="preserve">
<g>
	<path fill="#5e6167" d="M84.3,43.7c-0.3-0.3-0.2-0.7,0.1-1c0.2-0.2,19.7-20.5,19.7-20.5c0.2-0.2,0.5-0.4,0.9-0.4l14.9,0
		c0.4,0,0.6,0.5,0.3,0.8c-0.2,0.2-19,19.8-19.2,20c-0.2,0.2-0.3,0.7,0,1c0.3,0.4,19,23.8,19.3,24.1c0.2,0.3,0,0.7-0.3,0.7h-14.9
		c-0.4,0-0.7-0.2-1-0.5C103.7,67.7,84.5,43.9,84.3,43.7"/>
	<path fill="#5e6167" d="M51.1,67.7c0,0.4,0.3,0.8,0.8,0.8h10.5c0.4,0,0.8-0.3,0.8-0.8V1.5c0-0.4-0.3-0.8-0.8-0.8H51.9
		c-0.4,0-0.8,0.3-0.8,0.7V67.7z"/>
	<path fill="#ff5800" d="M85.7,61.7c0,4.2-3.4,7.5-7.5,7.5c-4.2,0-7.5-3.4-7.5-7.5c0-4.2,3.4-7.5,7.5-7.5
		C82.3,54.2,85.7,57.5,85.7,61.7"/>
	<path fill="#5e6167" d="M83.5,25.7c0,0,2-13.7,2.2-18.2v0c0-4.1-3.4-7.5-7.5-7.5c-4.1,0-7.5,3.4-7.5,7.5v0
		c0.2,4.7,2.3,18.3,2.3,18.3l3.7,22.5c0.1,0.8,0.8,1.3,1.6,1.3c0.7,0,1.4-0.5,1.6-1.3L83.5,25.7z"/>
	<path fill="#5e6167" d="M27.1,21.8H6.8c-0.4,0-0.8,0.3-0.8,0.7v7.5c0,0.4,0.4,0.8,0.8,0.8h18.9c2.9,0,5.9,2.5,5.9,5.8
		c0,0.4,0,1.7,0,2.4c0,0.4-0.3,0.8-0.7,0.8l-8.3,0c-6.6,0-11.2,0.9-15.1,2.7C2.9,44.6,0,49.1,0,54.2c0,4.3,2,7.6,4.8,10
		C9.9,68.5,21,70.3,43,68.4c0.3,0,0.6-0.3,0.6-0.7l0-29.3C43.6,29.7,36.8,21.8,27.1,21.8 M31.6,60.1c0,0.4-0.3,0.6-0.6,0.7
		c-1.5,0.2-11.2,0.7-14.8-1.2c-2.4-1.2-3.4-3.8-3.4-5.4c0-2,1.1-3.9,3.2-4.9c1.6-0.8,3.6-1.2,6.6-1.2l8.3,0c0.4,0,0.7,0.3,0.7,0.8
		L31.6,60.1z"/>
	<path fill="#5e6167" d="M148.8,21.8h-20.3c-0.4,0-0.8,0.3-0.8,0.7v7.5c0,0.4,0.4,0.8,0.8,0.8h18.9c2.9,0,5.9,2.5,5.9,5.8
		c0,0.4,0,1.7,0,2.4c0,0.4-0.3,0.8-0.7,0.8l-8.3,0c-6.6,0-11.2,0.9-15.1,2.7c-4.5,2.1-7.4,6.5-7.4,11.6c0,4.3,2,7.6,4.8,10
		c5.1,4.4,16.3,6.2,38.2,4.3c0.3,0,0.6-0.3,0.6-0.7V38.3C165.3,29.7,158.5,21.8,148.8,21.8 M153.3,60.1c0,0.4-0.3,0.6-0.6,0.7
		c-1.5,0.2-11.2,0.7-14.8-1.2c-2.4-1.2-3.4-3.8-3.4-5.4c0-2,1.1-3.9,3.2-4.9c1.6-0.8,3.6-1.2,6.6-1.2l8.3,0c0.4,0,0.7,0.3,0.7,0.8
		L153.3,60.1z"/>
</g>
</svg>
